<svg width="247" height="57" viewBox="0 0 247 57" fill="none" xmlns="http://www.w3.org/2000/svg">
<path d="M159.248 39.0664C154.148 39.0664 151.529 34.8672 151.529 29.7095C151.529 24.5519 154.102 20.5809 159.248 20.5809C164.486 20.5809 166.968 24.7344 166.968 29.7095C166.922 34.9585 164.303 39.0664 159.248 39.0664ZM109.348 20.5809C112.334 20.5809 113.575 22.3154 113.575 23.8216C113.575 27.473 109.853 29.0705 102.088 29.2988C102.088 24.7801 104.661 20.5809 109.348 20.5809ZM76.2644 39.0664C71.4398 39.0664 69.418 35.1411 69.418 29.7095C69.418 24.3237 71.4857 20.5809 76.2644 20.5809C81.135 20.5809 83.4325 24.4606 83.4325 29.7095C83.4325 35.1867 81.0431 39.0664 76.2644 39.0664ZM35.4617 15.2407H27.9261L40.4242 43.9046C38.0349 49.1992 36.7483 50.5228 35.0941 50.5228C33.3481 50.5228 31.6939 49.1079 30.4992 47.8755L27.1909 52.2573C29.4424 54.6307 32.521 56 35.6915 56C39.6431 56 42.6757 53.7178 44.4218 49.61L58.8498 15.195H51.452L43.9164 35.7344L35.4617 15.2407ZM235.064 20.5809C238.74 20.5809 239.475 23.0913 239.475 28.9793V44.4523H246V24.917C246 17.888 241.175 14.8299 236.718 14.8299C232.767 14.8299 229.137 17.2946 227.115 21.8589C225.966 17.4772 222.29 14.8299 218.017 14.8299C214.295 14.8299 210.573 17.2033 208.552 21.6307V15.2407H202.027V44.4066H208.552V31.9461C208.552 25.6473 211.86 20.5809 216.363 20.5809C220.039 20.5809 220.728 23.0913 220.728 28.9793V44.4523H227.253L227.207 31.9461C227.207 25.6473 230.561 20.5809 235.064 20.5809ZM182.794 15.2407H179.696V44.4066H186.22V33.2241C186.22 26.1494 189.345 21.3568 193.986 21.3568C195.18 21.3568 196.191 21.4025 197.294 21.8589L198.305 14.9668C197.478 14.8755 196.743 14.7842 196.007 14.7842C191.413 14.7842 188.104 17.9336 186.174 21.9959V15.2407H182.794ZM159.248 14.7842C150.61 14.7842 144.774 21.3568 144.774 29.6639C144.774 38.2905 150.702 44.7261 159.248 44.7261C167.933 44.7261 173.86 38.1079 173.86 29.6639C173.814 21.3112 167.795 14.7842 159.248 14.7842ZM109.715 39.0664C106.315 39.0664 103.788 37.332 102.731 33.8174C111.369 33.4523 119.824 31.3527 119.824 23.7303C119.824 19.3485 115.505 14.8299 109.302 14.8299C100.939 14.8299 95.2873 21.6307 95.2873 29.7095C95.2873 38.1535 100.847 44.7718 109.164 44.7718C114.953 44.7718 118.629 42.444 121.524 39.0664L118.354 34.7759C114.999 38.1992 112.932 39.0664 109.715 39.0664ZM77.551 14.7842C74.2427 14.7842 70.9344 16.7012 69.6478 19.7137V15.2407H63.123V55.8631H69.6478V41.3485C71.0263 43.4481 74.1967 44.8174 76.9996 44.8174C85.684 44.8174 90.2789 38.3817 90.2789 29.7095C90.2329 21.1286 85.7299 14.7842 77.551 14.7842ZM31.7858 3.55602H1V9.90042H13.0386V44.4066H19.885V9.90042H31.7858V3.55602ZM128.784 15.2407H124.878V21.083H128.784V44.4066H135.309V21.083H141.65V15.2407H135.309V10.6763C135.309 7.75519 136.504 6.75104 139.215 6.75104C140.225 6.75104 141.144 7.0249 142.385 7.43568L143.855 1.95851C142.661 1.27386 140.271 1 138.709 1C132.46 1 128.784 4.74274 128.784 11.2241V15.2407Z" fill="#131313"/>
</svg>
